<svg width="800" height="600" xmlns="http://www.w3.org/2000/svg" xmlns:xlink="http://www.w3.org/1999/xlink">
 <!-- Created with Method Draw - http://github.com/duopixel/Method-Draw/ -->

 <g>
  <title>background</title>
  <rect fill="#fff" id="canvas_background" height="602" width="802" y="-1" x="-1"/>
  <g display="none" overflow="visible" y="0" x="0" height="100%" width="100%" id="canvasGrid">
   <rect fill="url(#gridpattern)" stroke-width="0" y="0" x="0" height="100%" width="100%"/>
  </g>
 </g>
 <g>
  <title>Layer 1</title>
  <!-- Created with Method Draw - http://github.com/duopixel/Method-Draw/ -->
  <g stroke="null" id="svg_167">
   <g stroke="null" transform="matrix(0.6589330866368315,0,0,0.9218156175368667,-3687.2961366999657,-4158.876103616749) " id="svg_164">
    <title stroke="null" transform="translate(138.10203552246094,9.763340950012207) translate(-64.30908966064453,42.48270034790039) translate(5798.25,0) translate(0,4446) ">background</title>
    <rect stroke="null" x="5871.04295" y="4497.24604" width="802" height="602" id="svg_162" fill="#fff"/>
    <g stroke="null" id="svg_161" display="none">
     <rect stroke="null" id="svg_165" width="800" height="600" x="5872.04295" y="4498.24604" stroke-width="0" fill="url(#gridpattern)"/>
    </g>
   </g>
   <g stroke="null" transform="matrix(0.6589330866368315,0,0,0.9218156175368667,-3687.2961366999657,-4158.876103616749) " id="svg_166">
    <title stroke="null" transform="translate(138.10203552246094,9.763340950012207) translate(-64.30908966064453,42.48270034790039) translate(5798.25,0) translate(0,4446) ">Layer 1</title>
    <ellipse stroke="#1d1de5" fill="#080279" stroke-width="1.5" cx="6593.54296" cy="4851.24603" id="svg_160" rx="483.00001" ry="394.49999"/>
    <defs stroke="null" transform="translate(138.10203552246094,9.763340950012207) translate(-64.30908966064453,42.48270034790039) translate(5798.25,0) translate(0,4446) ">
     <linearGradient stroke="null" id="svg_149" x1="0.5" y1="0.99989" x2="0.5" y2="-0.00003">
      <stop stroke="null" offset="0" stop-color="gray" stop-opacity="0.25"/>
      <stop stroke="null" offset="0.54" stop-color="gray" stop-opacity="0.12"/>
      <stop stroke="null" offset="1" stop-color="gray" stop-opacity="0.1"/>
     </linearGradient>
     <linearGradient stroke="null" id="svg_131" x1="878.33" y1="643.77" x2="878.33" y2="175.07" xlink:href="#svg_149"/>
    </defs>
    <g stroke="null" id="svg_83">
     <path stroke="null" d="m5998.98378,4872.1639c-27.02163,-10.62779 -57.91755,-19.62382 -83.16366,-4.35137c-3.19968,1.93572 -6.35252,4.3727 -8.07651,7.99884c-4.55358,9.53995 2.68436,21.91149 -0.84325,31.99536s-16.80419,15.16047 -15.71733,25.93224c0.28577,2.81559 1.62561,5.36456 3.20437,7.56157c9.8895,13.75267 28.01948,15.14447 43.34329,11.73163s30.31032,-10.48915 45.91054,-9.59861c14.9912,0.87987 28.7831,9.06535 42.51878,15.95502c23.15671,11.64631 50.20177,20.00243 73.33974,8.29746c10.60159,-5.36456 19.36675,-14.49923 29.51392,-20.87697a72.64171,82.68668 0 0 1 44.83304,-9.36398c10.30645,1.65309 20.14442,5.81249 30.23068,8.68141c22.90842,6.51106 46.81938,6.29775 70.42583,6.04179c4.39429,-0.04799 8.85886,-0.10665 13.07045,-1.53578c6.2354,-2.13302 11.37925,-7.04431 16.33103,-11.84895c6.50712,-6.30842 13.3609,-13.24075 15.45967,-22.67405c2.47823,-11.19838 -2.65157,-23.10065 -10.2596,-30.71021s-17.33357,-11.76896 -26.82487,-15.77904c-2.34237,-0.98119 -4.84403,-1.97838 -7.24262,-1.23715c-1.57408,0.4906 -2.89986,1.68509 -4.07573,2.97024c-6.73667,7.38026 -12.42864,19.86379 -21.61543,17.85874c-3.27932,-0.71456 -5.96369,-3.31152 -8.55904,-5.71117c-13.85749,-12.79814 -32.4981,-22.67938 -49.22265,-15.6084c-12.23188,5.17258 -20.86587,18.45599 -33.26172,23.14331c-8.8167,3.33818 -18.39701,1.89306 -27.67281,2.54363c-13.49208,0.93853 -26.62343,6.36708 -40.13424,6.03646c-34.45164,-0.84254 -63.1551,-38.34111 -97.4662,-34.76829c-2.68905,0.27729 -5.6217,0.98119 -7.27073,3.40217" fill="#1b12bd" opacity="0.5" id="svg_159"/>
     <path stroke="null" d="m5955.53742,4836.4944s-28.6285,19.67181 24.16393,49.97142c0,0 11.63223,-24.5831 -1.2274,-44.62819a17.33357,19.73047 0 0 0 -22.48679,-5.60985l-0.44974,0.26663l0,-0.00001z" fill="#1b12bd" id="svg_158"/>
     <path stroke="#535461" d="m5955.87941,4836.0838s24.51061,21.33024 23.82663,50.36603" fill="none" stroke-miterlimit="10" id="svg_157"/>
     <path stroke="null" d="m6317.73876,4820.10745c5.79972,24.1405 -18.94044,92.91453 -18.94044,92.91453s-52.05693,-44.86283 -57.86133,-69.00333a39.82036,45.32676 0 1 1 76.79709,-23.91653l0.00468,0.00533z" fill="#1b12bd" id="svg_156"/>
     <path stroke="null" d="m6317.73876,4820.10745c5.79972,24.1405 -18.94044,92.91453 -18.94044,92.91453s-52.05693,-44.86283 -57.86133,-69.00333a39.82036,45.32676 0 1 1 76.79709,-23.91653l0.00468,0.00533z" opacity="0.1" id="svg_155"/>
     <path stroke="#535461" d="m6269.04549,4788.4907s32.40441,55.68259 29.98239,124.66459" fill="none" stroke-miterlimit="10" id="svg_154"/>
     <path stroke="null" d="m6326.00735,4864.22905s-29.38274,-18.19469 -25.66305,48.9689c0,0 24.51061,-0.99719 33.21018,-23.75655a17.33357,19.73047 0 0 0 -7.11613,-24.92972l-0.431,-0.28263z" fill="#1b12bd" id="svg_153"/>
     <path stroke="#535461" d="m6326.48987,4864.34637s-3.79465,34.86428 -26.14558,48.85158" fill="none" stroke-miterlimit="10" id="svg_152"/>
     <path stroke="null" d="m5895.83498,4856.74213s-28.64255,19.66648 24.15456,49.95009c0,0 11.63223,-24.5831 -1.2274,-44.62819a17.33357,19.73047 0 0 0 -22.48679,-5.60985l-0.44037,0.28796l0,-0.00001z" fill="#1b12bd" id="svg_151"/>
     <path stroke="#535461" d="m5896.16291,4856.33153s24.51061,21.33024 23.82663,50.36603" fill="none" stroke-miterlimit="10" id="svg_150"/>
     <path stroke="null" d="m6253.22041,4882.34376l-30.09951,0a10.03473,11.42234 0 0 0 1.04938,-5.10326l0,-156.00937a10.07689,11.47034 0 0 0 -10.07689,-11.47034l-232.98661,0a10.07689,11.47034 0 0 0 -10.07689,11.47034l0,156.01471a10.03473,11.42234 0 0 0 1.04938,5.10326l-31.16295,0a2.66562,3.03423 0 0 0 -2.66562,3.05022l0,2.44765a14.90687,16.96821 0 0 0 14.90687,16.96821l287.82159,0a14.90687,16.96821 0 0 0 14.90687,-16.96821l0,-2.44765a2.66562,3.03423 0 0 0 -2.66562,-3.05556zm-185.46452,9.70526l-2.59535,-3.33285l64.07799,0l-2.8577,3.33818l-58.62495,-0.00533l0.00001,0z" fill="url(#svg_149)" id="svg_148"/>
     <rect stroke="null" x="20677.17021" y="15072.64934" width="528.12" height="327.99" rx="23.26" ry="23.26" fill="#535461" id="svg_147" transform="matrix(0.4684748692919015,0,0,0.5332559985799807,-3712.851722512606,-3325.6122038210765) "/>
     <rect stroke="null" x="20688.29021" y="15120.45934" width="504.77" height="267.95" fill="#fff" id="svg_146" transform="matrix(0.4684748692919015,0,0,0.5332559985799807,-3712.851722512606,-3325.6122038210765) "/>
     <circle stroke="null" cx="20940.68021" cy="15097.10934" r="4.45" fill="#fff" id="svg_145" transform="matrix(0.4684748692919015,0,0,0.5332559985799807,-3712.851722512606,-3325.6122038210765) "/>
     <path stroke="null" d="m6133.83895,4880.64267l-8.12335,9.48662l-57.27574,0l-7.341,-9.48662l-116.64556,0a2.60472,2.9649 0 0 0 -2.60472,2.9649l0,2.38899a14.56957,16.58426 0 0 0 14.56957,16.58426l281.30042,0a14.56957,16.58426 0 0 0 14.56957,-16.58426l0,-2.38899a2.60472,2.9649 0 0 0 -2.60472,-2.9649l-115.84447,0z" fill="#535461" id="svg_144"/>
     <polyline stroke="#535461" points="6009.304183959961,4746.358067512512 6009.304183959961,4867.898106575012 6185.872543334961,4867.898106575012 " fill="none" stroke-miterlimit="10" stroke-width="2" id="svg_143"/>
     <rect stroke="null" x="20786.13021" y="15296.12934" width="38.91" height="60.04" fill="#1b12bd" opacity="0.5" id="svg_142" transform="matrix(0.4684748692919015,0,0,0.5332559985799807,-3712.851722512606,-3325.6122038210765) "/>
     <rect stroke="null" x="20852.84021" y="15242.75934" width="38.91" height="113.41" fill="#1b12bd" opacity="0.7" id="svg_141" transform="matrix(0.4684748692919015,0,0,0.5332559985799807,-3712.851722512606,-3325.6122038210765) "/>
     <rect stroke="null" x="20919.55021" y="15274.99934" width="38.91" height="81.16" fill="#1b12bd" opacity="0.5" id="svg_140" transform="matrix(0.4684748692919015,0,0,0.5332559985799807,-3712.851722512606,-3325.6122038210765) "/>
     <rect stroke="null" x="20986.26021" y="15224.96934" width="38.91" height="131.2" fill="#1b12bd" opacity="0.8" id="svg_139" transform="matrix(0.4684748692919015,0,0,0.5332559985799807,-3712.851722512606,-3325.6122038210765) "/>
     <rect stroke="null" x="21052.97021" y="15178.26934" width="38.91" height="177.89" fill="#1b12bd" id="svg_138" transform="matrix(0.4684748692919015,0,0,0.5332559985799807,-3712.851722512606,-3325.6122038210765) "/>
     <polyline stroke="#535461" points="6033.782211303711,4811.575352668762 6065.554183959961,4778.966954231262 6096.806137084961,4809.794590950012 6127.538070678711,4772.444981575012 6158.789535522461,4757.620762825012 " fill="none" stroke-miterlimit="10" stroke-width="2" id="svg_137"/>
     <circle stroke="null" cx="20805.03021" cy="15259.43934" r="7.78" fill="#1b12bd" id="svg_136" transform="matrix(0.4684748692919015,0,0,0.5332559985799807,-3712.851722512606,-3325.6122038210765) "/>
     <circle stroke="null" cx="20938.45021" cy="15254.98934" r="7.78" fill="#1b12bd" id="svg_135" transform="matrix(0.4684748692919015,0,0,0.5332559985799807,-3712.851722512606,-3325.6122038210765) "/>
     <circle stroke="null" cx="21006.27021" cy="15186.05934" r="7.78" fill="#1b12bd" id="svg_134" transform="matrix(0.4684748692919015,0,0,0.5332559985799807,-3712.851722512606,-3325.6122038210765) "/>
     <circle stroke="null" cx="20872.85021" cy="15197.16934" r="7.78" fill="#1b12bd" id="svg_133" transform="matrix(0.4684748692919015,0,0,0.5332559985799807,-3712.851722512606,-3325.6122038210765) "/>
     <circle stroke="null" cx="21071.87021" cy="15158.25934" r="7.78" fill="#1b12bd" id="svg_132" transform="matrix(0.4684748692919015,0,0,0.5332559985799807,-3712.851722512606,-3325.6122038210765) "/>
     <path stroke="null" d="m6294.38998,4885.83658c-1.92075,-0.7199 -4.76907,-1.55177 -7.02712,-1.25848c-2.1503,-0.89054 -7.20514,-3.19954 -10.6578,-6.67637a76.86267,87.49131 0 0 0 -0.22955,-10.24918c-1.76615,-22.86068 2.20652,-37.9305 2.20652,-37.9305s3.12004,-11.497 2.77806,-21.03695c0.20144,0.43194 0.31388,0.6879 0.31388,0.6879c0.27172,-8.22814 2.73589,-16.74424 4.58168,-22.05014a1.55534,1.77041 0 0 0 0.20613,-0.08532l2.06129,-5.56719a4.24438,4.8313 0 0 0 0.38883,-1.02918l0.33262,-0.87987l-0.09838,-0.04799c0.03279,-0.14398 0.06559,-0.29862 0.09838,-0.45327l0,0c1.31641,-6.34041 2.34237,-21.37823 2.34237,-21.37823c3.5323,-15.82704 -4.8534,-25.59629 -4.8534,-25.59629l-14.23227,-13.93931a1.80363,2.05304 0 0 1 0.14054,0.57058l-0.11712,-0.11732c-0.20144,-0.6559 -0.42163,-1.43979 -0.63713,-2.33566a10.82177,12.31821 0 0 0 1.40542,-1.37047a10.92952,12.44086 0 0 0 3.19031,-6.47906a21.58264,24.5671 0 0 0 0.21081,-5.86582l-0.23424,-6.72436a18.73899,21.33024 0 0 0 -0.35136,-3.91943c-1.07281,-5.33256 -5.87467,-9.06535 -10.69528,-9.31065a39.09423,44.50021 0 0 0 -4.59105,0.27729a30.88655,35.15757 0 0 1 -3.7478,0.09065a0.6746,0.76789 0 0 1 -0.40289,-0.12265a0.59028,0.6719 0 0 1 -0.17334,-0.46393a2.03318,2.31433 0 0 1 0.49658,-1.73308a1.8739,2.13302 0 0 1 0.6465,-0.42127l-0.34199,0.09065a1.8739,2.13302 0 0 1 0.56217,-0.34662a10.91078,12.41953 0 0 0 -3.55104,1.46645a4.58637,5.22058 0 0 0 -0.8292,0.79455a3.62131,4.12207 0 0 0 -1.1993,2.5383a4.15069,4.72465 0 0 1 -1.26488,-2.13302a1.8739,2.13302 0 0 1 0,-1.03452q-0.12649,0.17597 -0.24361,0.36261c0,-0.03733 0,-0.07466 0,-0.11198a9.47256,10.78244 0 0 0 -1.8739,4.3407a1.48507,1.69042 0 0 1 -0.3373,-1.24782c-0.07027,0.25063 -0.13586,0.50126 -0.19676,0.75189a1.52723,1.73841 0 0 1 0,-0.50126a15.08958,17.17618 0 0 0 -0.73551,5.9618c0,2.01571 0.78704,5.15659 2.68436,5.86582c0.09838,0.03733 0.19676,0.06399 0.29982,0.09065a11.91332,13.5607 0 0 0 8.03434,20.71166q0.04685,0.36795 0.08901,0.77322l0.07496,0c0.05153,0.53326 0.09369,1.11984 0.1218,1.71708a10.15185,11.55566 0 0 1 -1.56471,1.42913a12.9018,14.68587 0 0 1 -5.20944,1.96238a15.50652,17.65077 0 0 0 -6.26351,2.13302c-2.2721,1.44512 -4.77844,3.55148 -5.56548,6.11111c-1.31173,4.26605 -8.53561,10.90509 -13.37964,11.73163l-1.72399,-0.11198l-0.12649,-0.04266l0,0.03733l-0.42163,-0.02666l-0.02342,0l-0.11243,0l0,0.02666l-0.43568,-0.02666s-0.04216,0.2293 -0.10306,0.63457c-2.43607,-0.95453 -7.61272,-3.59948 -14.34939,-10.55847c-7.4956,-7.74821 -17.63808,-6.2231 -21.54984,-5.24724a0.66992,0.76256 0 0 0 -0.17802,1.41313c1.57876,0.98652 4.0242,2.42098 5.15322,2.58096c0,0 -2.34237,2.78893 0.14991,4.26605a1.80831,2.05837 0 0 0 1.8739,-0.20797c1.20867,-1.00785 4.56763,1.27448 9.43508,2.46364c0,0 13.73568,16.17899 20.55668,18.66396a9.80518,11.16105 0 0 0 0.52001,1.02918l0.42163,-0.03733l0,0.03733l0.17802,0l0.05153,0.53326s10.60627,-0.63457 14.05425,-5.01794a5.52332,6.28709 0 0 0 0.66992,-0.81588l-3.6869,52.79234l0.03279,0l-0.03279,0.50126l2.71247,0a102.24464,116.38312 0 0 1 -0.73551,19.44251l0,34.41634s-0.14054,3.02889 5.38746,7.46558a206.62553,235.19789 0 0 1 16.73392,14.76586l0.66992,0.66124c-1.01659,10.53181 -3.14347,30.16096 -4.91899,30.89152l1.09623,0.21863c-1.8739,2.70361 -7.19577,10.13186 -8.8167,10.32917c-1.98633,0.25063 -3.31212,3.77012 0,4.52201a37.10789,42.23921 0 0 0 19.67594,-2.20768a3.00292,3.41817 0 0 0 1.8739,-3.63681l-0.64181,-5.54586a0.68397,0.77855 0 0 1 0.28108,0.33595c0.44037,1.50911 0,-2.01038 0,-2.01038a138.0736,157.16654 0 0 0 4.26781,-20.26373l6.55865,6.4524s0.13117,-0.18664 0.36073,-0.53326c1.60687,4.14873 4.47394,12.63817 3.83212,18.85593c-0.88073,8.5321 7.4956,1.00252 6.61955,-4.02075c-0.71208,-4.06341 2.47355,-21.28758 3.71501,-27.72931a2.51571,2.86358 0 0 0 -1.68651,-3.33818l0.00005,0.00006z" fill="url(#svg_131)" id="svg_130"/>
     <path stroke="null" d="m6225.84742,4746.48079s-6.24945,-1.22649 -15.51589,-10.7931c-7.33163,-7.5669 -17.22114,-6.07912 -21.03452,-5.12459a0.65118,0.74123 0 0 0 -0.17334,1.3758c1.54128,0.95986 3.9305,2.36232 5.05016,2.5223c0,0 -2.30958,2.71961 0.14523,4.17539a1.76615,2.01038 0 0 0 1.84579,-0.20264c1.18056,-0.98119 4.45988,1.24782 9.2149,2.40498c0,0 18.53287,21.8315 22.84283,18.1307l-2.37517,-12.48886l0.00001,0.00002z" fill="#fec3be" id="svg_129"/>
     <path stroke="null" d="m6257.75524,4716.79976s1.72399,8.34012 0,14.22727l7.75794,1.22649l6.89595,-3.92476l0,-5.15125s-3.23248,-7.84953 -2.37048,-16.92555l-12.28341,10.5478z" fill="#fec3be" id="svg_128"/>
     <path stroke="null" d="m6279.72203,4897.57355s5.6217,12.51019 4.74097,20.85031s7.32695,0.98119 6.46495,-3.92476c-0.69803,-3.96742 2.41265,-20.79698 3.626,-27.05741a2.45481,2.79426 0 0 0 -1.63029,-3.25819c-2.59067,-0.97053 -6.92874,-2.15969 -9.10715,-0.34128c-3.21842,2.69294 -4.09447,13.73134 -4.09447,13.73134l-0.00001,-0.00001z" fill="#8b416f" id="svg_127"/>
     <path stroke="null" d="m6258.40174,4911.31022s-7.32695,10.7931 -9.26643,11.0384s-3.23248,3.67947 0,4.41536a36.23185,41.24202 0 0 0 19.20747,-2.13302a2.93265,3.33818 0 0 0 1.84111,-3.55148l-1.23677,-10.50514l-10.54537,0.73589l-0.00001,-0.00001z" fill="#8b416f" id="svg_126"/>
     <path stroke="null" d="m6246.33382,4796.7615l-7.02712,1.06651a102.84429,117.06569 0 0 1 -0.08433,28.11859l0,33.59513s-0.13586,2.95957 5.26097,7.26295a201.75807,229.65736 0 0 1 16.3404,14.39791l19.55414,19.28254s7.75794,-10.7931 6.68045,-17.17084c0,0 -12.92991,-4.66066 -14.65389,-12.26489c-0.98848,-4.35137 -6.00116,-7.99884 -10.105,-10.29184a12.5645,14.30193 0 0 1 -6.72261,-16.23231a10.99511,12.51552 0 0 1 1.10092,-3.15154c3.44798,-6.86834 8.40444,-22.3221 8.40444,-22.3221l-9.48193,-20.57302l-9.26643,-1.71708l-0.00001,-0.00001z" fill="#4d4981" id="svg_125"/>
     <path stroke="null" d="m6246.33382,4796.7615l-7.02712,1.06651a102.84429,117.06569 0 0 1 -0.08433,28.11859l0,33.59513s-0.13586,2.95957 5.26097,7.26295a201.75807,229.65736 0 0 1 16.3404,14.39791l19.55414,19.28254s7.75794,-10.7931 6.68045,-17.17084c0,0 -12.92991,-4.66066 -14.65389,-12.26489c-0.98848,-4.35137 -6.00116,-7.99884 -10.105,-10.29184a12.5645,14.30193 0 0 1 -6.72261,-16.23231a10.99511,12.51552 0 0 1 1.10092,-3.15154c3.44798,-6.86834 8.40444,-22.3221 8.40444,-22.3221l-9.48193,-20.57302l-9.26643,-1.71708l-0.00001,-0.00001z" opacity="0.05" id="svg_124"/>
     <path stroke="null" d="m6256.67775,4912.06211s12.71441,2.45298 13.1454,3.92476s0,-1.96238 0,-1.96238s7.32695,-25.26567 5.6217,-47.58243s2.15498,-37.03996 2.15498,-37.03996s4.52547,-16.68025 1.93949,-26.24686s-29.73878,-5.39655 -29.73878,-5.39655s9.48193,25.26567 9.26643,37.28526c0,0 1.07749,36.30407 3.01698,40.47413c-0.01874,-0.02133 -3.03572,35.54684 -5.4062,36.54403z" fill="#4d4981" id="svg_123"/>
     <path stroke="null" d="m6258.17218,4723.1775s1.29299,9.06535 14.2229,5.15125l-8.6012,74.56519s-24.99782,0.98119 -24.78232,-2.45298l5.15322,-45.12946l14.0074,-32.13401l0,0.00001z" fill="#fff" id="svg_122"/>
     <path stroke="null" d="m6258.50949,4722.68691a10.50321,11.9556 0 0 1 -6.22603,3.36485a15.14579,17.24017 0 0 0 -6.11828,2.06903c-2.21589,1.41313 -4.68475,3.46616 -5.43431,5.96713c-1.50849,4.90596 -10.99042,13.00078 -15.30039,11.2837l1.50849,14.71787s12.28341,-0.73589 14.4384,-6.13244l-3.65879,52.52038l3.23248,0s1.72399,-14.22727 3.01698,-17.17084s3.87897,-19.13323 4.09447,-23.05799s3.44798,-26.49216 6.24945,-30.39559l4.21627,-11.65164l-0.01874,-1.51445l0,-0.00001z" opacity="0.1" id="svg_121"/>
     <path stroke="null" d="m6258.50949,4723.4228a13.33748,15.1818 0 0 1 -6.65703,3.11955a15.14579,17.24017 0 0 0 -6.1136,2.0797c-2.21589,1.41313 -4.68475,3.46616 -5.43431,5.96713c-1.50849,4.90596 -10.99042,13.00078 -15.30039,11.2837l1.50849,14.71787s12.28341,-0.73589 14.4384,-6.13244l-3.66347,52.48839l3.23248,0s1.72399,-14.22727 3.01698,-17.17084s3.87897,-19.13323 4.09447,-23.05799s3.44798,-26.49216 6.24945,-30.39559l4.62853,-11.43301l0,-1.46645l0,-0.00002z" opacity="0.1" id="svg_120"/>
     <path stroke="null" d="m6258.50949,4722.93221a13.33748,15.1818 0 0 1 -6.65703,3.11955a15.14579,17.24017 0 0 0 -6.11828,2.06903c-2.21589,1.41313 -4.68475,3.46616 -5.43431,5.96713c-1.50849,4.90596 -10.99042,13.00078 -15.30039,11.2837l1.50849,14.71787s12.28341,-0.73589 14.4384,-6.13244l-3.65879,52.52038l3.23248,0s1.72399,-14.22727 3.01698,-17.17084s3.87897,-19.13323 4.09447,-23.05799s3.44798,-26.49216 6.24945,-30.39559l4.63322,-11.40635l-0.00468,-1.51445l-0.00001,0z" fill="#fd6f8d" id="svg_119"/>
     <path stroke="null" d="m6269.49991,4713.48824c-0.28108,-2.325 0.28108,-3.77545 0.53875,-6.50039l-12.28341,10.5478s0.29514,1.42379 0.52001,3.50882a11.71187,13.3314 0 0 0 1.8739,0.17064c4.26312,0 7.33163,-3.79145 9.35076,-7.72688l-0.00001,0.00001z" opacity="0.1" id="svg_118"/>
     <circle stroke="null" cx="21288.18021" cy="15063.77934" r="24.84" fill="#fec3be" id="svg_117" transform="matrix(0.4684748692919015,0,0,0.5332559985799807,-3712.851722512606,-3325.6122038210765) "/>
     <path stroke="null" d="m6247.42537,4694.2537a14.72885,16.76557 0 0 1 0.93695,-6.55372a1.43822,1.6371 0 0 0 0.24361,2.13302a9.21959,10.49448 0 0 1 2.92328,-5.89781c-0.8292,0.15464 -1.25551,1.32247 -1.04938,2.25034a4.49736,5.11926 0 0 0 1.43822,2.30367c-0.07027,-1.40246 0.74488,-2.71427 1.77552,-3.48216a10.65312,12.12624 0 0 1 3.46671,-1.42913a2.00976,2.28767 0 0 0 -1.33047,2.34633a0.57622,0.6559 0 0 0 0.17334,0.45327a0.66055,0.75189 0 0 0 0.39352,0.11732a30.16041,34.33102 0 0 0 3.64005,-0.09065a38.17602,43.45503 0 0 1 4.4833,-0.27196c4.68475,0.22397 9.39292,3.86611 10.4423,9.06535a18.31268,20.84498 0 0 1 0.34199,3.82878l0.22955,6.56438a21.08137,23.99652 0 0 1 -0.20613,5.73783a10.68123,12.15824 0 0 1 -5.48584,8.2548c-1.69119,-2.78893 -1.84111,-6.37241 -2.4267,-9.69459a4.30997,4.90596 0 0 0 -0.73082,-2.13302a1.64435,1.87173 0 0 0 -1.80363,-0.69323c-0.63244,0.28796 -0.90416,1.38647 -0.37946,1.87706c-0.46847,0.62924 -1.34452,0.15998 -1.8739,-0.39994a10.06284,11.45434 0 0 1 -2.9186,-5.93514c-0.21081,-1.14117 -0.42163,-2.54896 -1.40542,-2.93824a2.61409,2.97557 0 0 0 -1.04001,-0.07999c-2.05192,0.15998 -5.26097,1.12517 -7.24731,0.38394c-1.82237,-0.67724 -2.59067,-3.74879 -2.59067,-5.7165l0,-0.00001z" opacity="0.1" id="svg_116"/>
     <path stroke="null" d="m6247.64087,4694.0084a14.72885,16.76557 0 0 1 0.93695,-6.55372a1.43822,1.6371 0 0 0 0.24361,2.13302a9.21959,10.49448 0 0 1 2.92328,-5.89781c-0.8292,0.15464 -1.25551,1.32247 -1.04938,2.25034a4.49736,5.11926 0 0 0 1.43822,2.30367c-0.07027,-1.40246 0.74488,-2.71427 1.77552,-3.48216a10.65312,12.12624 0 0 1 3.46671,-1.42913a2.00976,2.28767 0 0 0 -1.33047,2.34633a0.57622,0.6559 0 0 0 0.17334,0.45327a0.66055,0.75189 0 0 0 0.39352,0.11732a30.16041,34.33102 0 0 0 3.64005,-0.09065a38.17602,43.45503 0 0 1 4.4833,-0.27196c4.68475,0.22397 9.39292,3.86611 10.4423,9.06535a18.31268,20.84498 0 0 1 0.34199,3.82878l0.22955,6.56438a21.08137,23.99652 0 0 1 -0.20613,5.73783a10.68123,12.15824 0 0 1 -5.48584,8.2548c-1.69119,-2.78893 -1.84111,-6.37241 -2.4267,-9.69459a4.30997,4.90596 0 0 0 -0.73082,-2.13302a1.64435,1.87173 0 0 0 -1.80363,-0.69323c-0.63244,0.28796 -0.90416,1.38647 -0.37946,1.87706c-0.46847,0.62924 -1.34452,0.15998 -1.8739,-0.39994a10.06284,11.45434 0 0 1 -2.9186,-5.93514c-0.21081,-1.14117 -0.42163,-2.54896 -1.40542,-2.93824a2.61409,2.97557 0 0 0 -1.04001,-0.07999c-2.05192,0.15998 -5.26097,1.12517 -7.24731,0.38394c-1.82237,-0.68257 -2.59067,-3.74879 -2.59067,-5.7165l0,-0.00001z" fill="#784f69" id="svg_115"/>
     <path stroke="null" d="m6224.44199,4745.37695s-1.72399,9.06535 1.50849,14.71787l1.83174,-0.17064l-0.99785,-14.39791l-2.34237,-0.14931l-0.00001,-0.00001z" opacity="0.1" id="svg_114"/>
     <path stroke="null" d="m6224.91047,4745.37695s-1.72399,9.06535 1.50849,14.71787l1.83174,-0.17064l-0.99785,-14.39791l-2.34237,-0.14931l-0.00001,-0.00001z" fill="#fd6f8d" id="svg_113"/>
     <path stroke="null" d="m6271.22389,4720.62321l13.89965,13.61403s8.18894,9.56661 4.74097,25.02037c0,0 -1.50849,22.56739 -3.23248,23.54858c0,0 -6.03396,13.73667 -6.46495,26.73746c0,0 -8.08119,-18.51998 -11.74466,-7.23628s-12.18035,12.87813 -12.18035,12.87813l4.74097,-66.74232s11.96485,-23.67123 10.24086,-27.81997l-0.00001,0z" opacity="0.1" id="svg_112"/>
     <path stroke="null" d="m6271.65489,4720.62321l13.89965,13.61403s8.18894,9.56661 4.74097,25.02037c0,0 -1.50849,22.56739 -3.23248,23.54858c0,0 -6.03396,13.73667 -6.46495,26.73746c0,0 -8.51219,-19.50117 -12.18035,-8.21747s-11.74466,13.86466 -11.74466,13.86466l4.74097,-66.71566s11.96485,-23.70323 10.24086,-27.85196l-0.00001,-0.00001z" fill="#fd6f8d" id="svg_111"/>
     <path stroke="null" d="m6278.0121,4778.1242s3.44798,-2.69828 9.05093,4.66066l-13.7919,28.45454l-4.63322,-7.96151s9.80518,-21.96481 9.37418,-25.15369l0.00001,0z" fill="#fec3be" id="svg_110"/>
     <path stroke="null" d="m6274.67187,4779.71864s7.62677,9.74792 10.60159,8.18548l2.75463,-7.30027l-10.33924,-5.05527l-3.01698,4.17006z" opacity="0.1" id="svg_109"/>
     <path stroke="null" d="m6274.67187,4779.22804s7.62677,9.74792 10.60159,8.18548l2.75463,-7.30027l-10.33924,-5.05527l-3.01698,4.17006z" fill="#fd6f8d" id="svg_108"/>
     <path stroke="null" d="m6269.10639,4801.41683s3.63068,8.46811 5.56548,8.9587l-2.81085,3.67947l-4.09447,-8.83072l1.33984,-3.80745z" opacity="0.1" id="svg_107"/>
     <path stroke="null" d="m6268.89089,4801.67812s3.63068,8.46811 5.56548,8.9587l-2.81085,3.67947l-4.10384,-8.84672l1.34921,-3.79145z" fill="#4d4981" id="svg_106"/>
     <path stroke="null" d="m6275.74936,4749.30172s0.431,17.66144 -1.29299,24.28448" opacity="0.1" id="svg_105"/>
     <path stroke="null" d="m6240.83861,4752.73588s2.58598,-0.98119 2.58598,-3.43417" opacity="0.1" id="svg_104"/>
     <path stroke="#535461" d="m5926.81522,4755.69012s-12.28341,28.92381 -4.21627,63.15351s5.50458,75.1891 -2.53913,85.32096" fill="none" stroke-miterlimit="10" stroke-width="2" id="svg_103"/>
     <circle stroke="null" cx="20576.70021" cy="15154.64934" r="7.23" fill="#1b12bd" id="svg_102" transform="matrix(0.4684748692919015,0,0,0.5332559985799807,-3712.851722512606,-3325.6122038210765) "/>
     <path stroke="#535461" d="m5921.70885,4774.29542s12.73315,2.61295 16.12022,-2.66628" fill="none" stroke-miterlimit="10" stroke-width="2" id="svg_101"/>
     <path stroke="#535461" d="m5920.50018,4782.69421s-7.65956,-9.6466 -7.23794,-15.43243" fill="none" stroke-miterlimit="10" stroke-width="2" id="svg_100"/>
     <path stroke="#535461" d="m5919.849,4800.36631s6.96622,2.09036 13.32343,-13.3314" fill="none" stroke-miterlimit="10" stroke-width="2" id="svg_99"/>
     <path stroke="#535461" d="m5921.70885,4813.21778s-17.33357,-12.69683 -15.22075,-20.88764" fill="none" stroke-miterlimit="10" stroke-width="2" id="svg_98"/>
     <path stroke="#535461" d="m5924.41663,4827.74901s12.14287,-12.26489 10.8733,-24.33247" fill="none" stroke-miterlimit="10" stroke-width="2" id="svg_97"/>
     <path stroke="#535461" d="m5925.73773,4836.29177s-15.45967,-4.91662 -14.9912,-12.6275" fill="none" stroke-miterlimit="10" stroke-width="2" id="svg_96"/>
     <path stroke="#535461" d="m5926.81522,4846.47162s9.73959,-10.27051 11.00916,-16.53094" fill="none" stroke-miterlimit="10" stroke-width="2" id="svg_95"/>
     <path stroke="#535461" d="m5927.49451,4863.93576s-9.99257,-13.27807 -10.41888,-20.02376" fill="none" stroke-miterlimit="10" stroke-width="2" id="svg_94"/>
     <path stroke="#535461" d="m5927.49451,4874.92616s11.1825,-14.14195 12.02575,-20.88764" fill="none" stroke-miterlimit="10" stroke-width="2" id="svg_93"/>
     <circle stroke="null" cx="20547.77021" cy="15178.14934" r="7.23" fill="#1b12bd" id="svg_92" transform="matrix(0.4684748692919015,0,0,0.5332559985799807,-3712.851722512606,-3325.6122038210765) "/>
     <circle stroke="null" cx="20539.64021" cy="15282.10934" r="7.23" fill="#1b12bd" id="svg_91" transform="matrix(0.4684748692919015,0,0,0.5332559985799807,-3712.851722512606,-3325.6122038210765) "/>
     <circle stroke="null" cx="20533.31021" cy="15223.34934" r="7.23" fill="#1b12bd" id="svg_90" transform="matrix(0.4684748692919015,0,0,0.5332559985799807,-3712.851722512606,-3325.6122038210765) "/>
     <circle stroke="null" cx="20600.21021" cy="15184.47934" r="7.23" fill="#1b12bd" id="svg_89" transform="matrix(0.4684748692919015,0,0,0.5332559985799807,-3712.851722512606,-3325.6122038210765) "/>
     <circle stroke="null" cx="20600.21021" cy="15295.66934" r="7.23" fill="#1b12bd" id="svg_88" transform="matrix(0.4684748692919015,0,0,0.5332559985799807,-3712.851722512606,-3325.6122038210765) "/>
     <circle stroke="null" cx="20588.46021" cy="15213.40934" r="7.23" fill="#1b12bd" id="svg_87" transform="matrix(0.4684748692919015,0,0,0.5332559985799807,-3712.851722512606,-3325.6122038210765) "/>
     <circle stroke="null" cx="20602.92021" cy="15343.58934" r="7.23" fill="#1b12bd" id="svg_86" transform="matrix(0.4684748692919015,0,0,0.5332559985799807,-3712.851722512606,-3325.6122038210765) "/>
     <circle stroke="null" cx="20554.10021" cy="15324.59934" r="7.23" fill="#1b12bd" id="svg_85" transform="matrix(0.4684748692919015,0,0,0.5332559985799807,-3712.851722512606,-3325.6122038210765) "/>
     <circle stroke="null" cx="20595.69021" cy="15244.13934" r="7.23" fill="#1b12bd" id="svg_84" transform="matrix(0.4684748692919015,0,0,0.5332559985799807,-3712.851722512606,-3325.6122038210765) "/>
    </g>
   </g>
  </g>
 </g>
</svg>