<svg width="800" height="600" xmlns="http://www.w3.org/2000/svg" stroke="null" style="vector-effect: non-scaling-stroke;">
 <!-- Created with Method Draw - http://github.com/duopixel/Method-Draw/ -->

 <g stroke="null">
  <title stroke="null">background</title>
  <rect stroke="null" fill="#ffffff" id="canvas_background" height="602" width="802" y="-1" x="-1"/>
  <g stroke="null" style="vector-effect: non-scaling-stroke;" display="none" overflow="visible" y="0" x="0" height="100%" width="100%" id="canvasGrid">
   <rect fill="url(#gridpattern)" stroke-width="0" y="0" x="0" height="100%" width="100%"/>
  </g>
 </g>
 <g stroke="null">
  <title stroke="null">Layer 1</title>
  <ellipse stroke="#6D97AB" ry="350.99996" rx="328.5" id="svg_44" cy="312.99997" cx="602.49997" stroke-width="1.5" fill="#33666C"/>
  <g stroke="null" id="svg_91">
   <rect stroke="null" transform="matrix(0.3894798548314829,0,0,0.4965217468596134,-2536.5546522767395,-2390.7561659588596) " id="svg_49" fill="#e6e6e6" height="5" width="6" y="5475.07546" x="7502.24053"/>
   <path stroke="null" id="svg_50" fill="#e6e6e6" d="m608.79501,330.22048l-4.60492,0l0,-2.48261l4.60492,0l0,2.48261zm-9.20983,0l-4.6053,0l0,-2.48261l4.6053,0l0,2.48261zm-9.21021,0l-4.60491,0l0,-2.48261l4.60491,0l0,2.48261zm-9.20983,0l-4.6053,0l0,-2.48261l4.6053,0l0,2.48261zm-9.21021,0l-4.60492,0l0,-2.48261l4.60492,0l0,2.48261zm-9.21021,0l-4.60492,0l0,-2.48261l4.60494,0l-0.00002,2.48261zm-9.20983,0l-4.60491,0l0,-2.48261l4.60491,0l0,2.48261zm-9.21021,0l-4.60491,0l0,-2.48261l4.60491,0l0,2.48261zm-9.21003,0l-4.6049,0l0,-2.48261l4.6049,0l0,2.48261zm-9.21003,0l-4.60509,0l0,-2.48261l4.6051,0l-0.00002,2.48261zm-9.21003,0l-4.60507,0l0,-2.48261l4.6051,0l-0.00003,2.48261zm-9.21003,0l-4.60506,0l0,-2.48261l4.6051,0l-0.00004,2.48261zm-9.21003,0l-4.60505,0l0,-2.48261l4.6051,0l-0.00005,2.48261zm-9.21021,0l-4.60486,0l0,-2.48261l4.60492,0l-0.00005,2.48261zm-9.21003,0l-4.60485,0l0,-2.48261l4.60491,0l-0.00006,2.48261zm-9.21003,0l-4.60503,0l0,-2.48261l4.6051,0l-0.00007,2.48261zm-9.21003,0l-4.60503,0l0,-2.48261l4.6051,0l-0.00007,2.48261zm-9.21003,0l-4.60501,0l0,-2.48261l4.60511,0l-0.0001,2.48261zm-9.21021,0l-4.60482,0l0,-2.48261l4.60491,0l-0.0001,2.48261zm-9.21003,0l-4.6048,0l0,-2.48261l4.60491,0l-0.00011,2.48261zm-9.21003,0l-4.60479,0l0,-2.48261l4.60491,0l-0.00012,2.48261zm-9.21003,0l-4.60497,0l0,-2.48261l4.6051,0l-0.00013,2.48261zm-9.21003,0l-4.60496,0l0,-2.48261l4.6051,0l-0.00014,2.48261zm-9.21003,0l-4.60495,0l0,-2.48261l4.6051,0l-0.00015,2.48261z"/>
   <rect stroke="null" transform="matrix(0.3894798548314829,0,0,0.4965217468596134,-2536.5546522767395,-2390.7561659588596) " id="svg_51" fill="#e6e6e6" height="5" width="6" y="5348.07546" x="7502.24053"/>
   <path stroke="null" id="svg_52" fill="#e6e6e6" d="m608.79501,267.16221l-4.60492,0l0,-2.48261l4.60492,0l0,2.48261zm-9.20983,0l-4.6053,0l0,-2.48261l4.6053,0l0,2.48261zm-9.21021,0l-4.60491,0l0,-2.48261l4.60491,0l0,2.48261zm-9.20983,0l-4.6053,0l0,-2.48261l4.6053,0l0,2.48261zm-9.21021,0l-4.60492,0l0,-2.48261l4.60492,0l0,2.48261zm-9.21021,0l-4.60492,0l0,-2.48261l4.60494,0l-0.00002,2.48261zm-9.20983,0l-4.60491,0l0,-2.48261l4.60491,0l0,2.48261zm-9.21021,0l-4.60491,0l0,-2.48261l4.60491,0l0,2.48261zm-9.21003,0l-4.6049,0l0,-2.48261l4.6049,0l0,2.48261zm-9.21003,0l-4.60509,0l0,-2.48261l4.6051,0l-0.00002,2.48261zm-9.21003,0l-4.60507,0l0,-2.48261l4.6051,0l-0.00003,2.48261zm-9.21003,0l-4.60506,0l0,-2.48261l4.6051,0l-0.00004,2.48261zm-9.21003,0l-4.60505,0l0,-2.48261l4.6051,0l-0.00005,2.48261zm-9.21021,0l-4.60486,0l0,-2.48261l4.60492,0l-0.00005,2.48261zm-9.21003,0l-4.60485,0l0,-2.48261l4.60491,0l-0.00006,2.48261zm-9.21003,0l-4.60503,0l0,-2.48261l4.6051,0l-0.00007,2.48261zm-9.21003,0l-4.60503,0l0,-2.48261l4.6051,0l-0.00007,2.48261zm-9.21003,0l-4.60501,0l0,-2.48261l4.60511,0l-0.0001,2.48261zm-9.21021,0l-4.60482,0l0,-2.48261l4.60491,0l-0.0001,2.48261zm-9.21003,0l-4.6048,0l0,-2.48261l4.60491,0l-0.00011,2.48261zm-9.21003,0l-4.60479,0l0,-2.48261l4.60491,0l-0.00012,2.48261zm-9.21003,0l-4.60497,0l0,-2.48261l4.6051,0l-0.00013,2.48261zm-9.21003,0l-4.60496,0l0,-2.48261l4.6051,0l-0.00014,2.48261zm-9.21003,0l-4.60495,0l0,-2.48261l4.6051,0l-0.00015,2.48261z"/>
   <rect stroke="null" transform="matrix(0.3894798548314829,0,0,0.4965217468596134,-2536.5546522767395,-2390.7561659588596) " id="svg_53" fill="#e6e6e6" height="5" width="6" y="5221.07546" x="7502.24053"/>
   <path stroke="null" id="svg_54" fill="#e6e6e6" d="m608.79501,204.10395l-4.60492,0l0,-2.48261l4.60492,0l0,2.48261zm-9.20983,0l-4.6053,0l0,-2.48261l4.6053,0l0,2.48261zm-9.21021,0l-4.60491,0l0,-2.48261l4.60491,0l0,2.48261zm-9.20983,0l-4.6053,0l0,-2.48261l4.6053,0l0,2.48261zm-9.21021,0l-4.60492,0l0,-2.48261l4.60492,0l0,2.48261zm-9.21021,0l-4.60492,0l0,-2.48261l4.60494,0l-0.00002,2.48261zm-9.20983,0l-4.60491,0l0,-2.48261l4.60491,0l0,2.48261zm-9.21021,0l-4.60491,0l0,-2.48261l4.60491,0l0,2.48261zm-9.21003,0l-4.6049,0l0,-2.48261l4.6049,0l0,2.48261zm-9.21003,0l-4.60509,0l0,-2.48261l4.6051,0l-0.00002,2.48261zm-9.21003,0l-4.60507,0l0,-2.48261l4.6051,0l-0.00003,2.48261zm-9.21003,0l-4.60506,0l0,-2.48261l4.6051,0l-0.00004,2.48261zm-9.21003,0l-4.60505,0l0,-2.48261l4.6051,0l-0.00005,2.48261zm-9.21021,0l-4.60486,0l0,-2.48261l4.60492,0l-0.00005,2.48261zm-9.21003,0l-4.60485,0l0,-2.48261l4.60491,0l-0.00006,2.48261zm-9.21003,0l-4.60503,0l0,-2.48261l4.6051,0l-0.00007,2.48261zm-9.21003,0l-4.60503,0l0,-2.48261l4.6051,0l-0.00007,2.48261zm-9.21003,0l-4.60501,0l0,-2.48261l4.60511,0l-0.0001,2.48261zm-9.21021,0l-4.60482,0l0,-2.48261l4.60491,0l-0.0001,2.48261zm-9.21003,0l-4.6048,0l0,-2.48261l4.60491,0l-0.00011,2.48261zm-9.21003,0l-4.60479,0l0,-2.48261l4.60491,0l-0.00012,2.48261zm-9.21003,0l-4.60497,0l0,-2.48261l4.6051,0l-0.00013,2.48261zm-9.21003,0l-4.60496,0l0,-2.48261l4.6051,0l-0.00014,2.48261zm-9.21003,0l-4.60495,0l0,-2.48261l4.6051,0l-0.00015,2.48261z"/>
   <rect stroke="null" transform="matrix(0.3894798548314829,0,0,0.4965217468596134,-2536.5546522767395,-2390.7561659588596) " id="svg_55" fill="#3f3d56" height="180" width="49" y="5476.57546" x="7648.74053"/>
   <rect stroke="null" transform="matrix(0.3894798548314829,0,0,0.4965217468596134,-2536.5546522767395,-2390.7561659588596) " id="svg_56" fill="#1b12bd" height="180" width="49" y="5476.57546" x="7657.74053"/>
   <rect stroke="null" transform="matrix(0.3894798548314829,0,0,0.4965217468596134,-2536.5546522767395,-2390.7561659588596) " id="svg_57" fill="#3f3d56" height="307" width="49" y="5349.57546" x="7764.74053"/>
   <rect stroke="null" transform="matrix(0.3894798548314829,0,0,0.4965217468596134,-2536.5546522767395,-2390.7561659588596) " id="svg_58" fill="#1b12bd" height="307" width="49" y="5349.57546" x="7773.74053"/>
   <rect stroke="null" transform="matrix(0.3894798548314829,0,0,0.4965217468596134,-2536.5546522767395,-2390.7561659588596) " id="svg_59" fill="#3f3d56" height="434" width="49" y="5222.57546" x="7880.74053"/>
   <rect stroke="null" transform="matrix(0.3894798548314829,0,0,0.4965217468596134,-2536.5546522767395,-2390.7561659588596) " id="svg_60" fill="#1b12bd" height="434" width="49" y="5222.57546" x="7889.74053"/>
   <circle stroke="null" transform="matrix(0.3894798548314829,0,0,0.4965217468596134,-2536.5546522767395,-2390.7561659588596) " id="svg_61" fill="#e6e6e6" r="12" cy="5223.57546" cx="7502.74053"/>
   <circle stroke="null" transform="matrix(0.3894798548314829,0,0,0.4965217468596134,-2536.5546522767395,-2390.7561659588596) " id="svg_62" fill="#e6e6e6" r="12" cy="5350.57546" cx="7502.74053"/>
   <circle stroke="null" transform="matrix(0.3894798548314829,0,0,0.4965217468596134,-2536.5546522767395,-2390.7561659588596) " id="svg_63" fill="#e6e6e6" r="12" cy="5477.57546" cx="7502.74053"/>
   <rect stroke="null" x="7462.74053" transform="matrix(0.3894798548314829,0,0,0.4965217468596134,-2536.5546522767395,-2390.7561659588596) " id="svg_64" fill="#3f3d56" height="2.24072" width="888" y="5655.4551"/>
   <circle stroke="null" transform="matrix(0.3894798548314829,0,0,0.4965217468596134,-2536.5546522767395,-2390.7561659588596) " id="svg_65" fill="#2f2e41" r="34.03721" cy="5216.1617" cx="8219.08467"/>
   <path stroke="null" id="svg_66" fill="#ffb9b9" d="m632.54612,310.40323l-0.71658,5.48115s-3.94121,18.72726 1.07487,17.81371s3.22463,-16.90021 3.22463,-16.90021l0.71659,-5.02436l-4.29951,-1.37029z"/>
   <path stroke="null" id="svg_67" fill="#2f2e41" d="m676.79518,284.59615l-29.02166,0s-8.24072,16.44345 -5.01611,45.21949s1.79146,93.17956 1.79146,93.17956l11.10706,0l7.52413,-100.94451l15.76485,100.94451l10.39047,-1.37029l-5.73266,-116.47444l-6.80755,-20.55431z"/>
   <path stroke="null" id="svg_68" fill="#2f2e41" d="m647.59438,421.39652l-0.35829,16.90021s-4.65779,16.90021 2.14975,15.07316s7.52413,-5.48115 7.52413,-6.85144s-1.79146,-25.12194 -1.79146,-25.12194l-7.52413,0z"/>
   <path stroke="null" id="svg_69" fill="#2f2e41" d="m687.51473,420.11248l2.05121,18.07322s6.31539,16.00176 -0.61957,15.29991s-8.01233,-4.20907 -8.14983,-5.5681s-0.74413,-26.57798 -0.74413,-26.57798l7.46232,-1.22704z"/>
   <circle stroke="null" transform="matrix(0.3894798548314829,0,0,0.4965217468596134,-2536.5546522767395,-2390.7561659588596) " id="svg_70" fill="#ffb9b9" r="24.83796" cy="5224.90098" cx="8219.54463"/>
   <polygon stroke="null" id="svg_71" fill="#ffb9b9" points="672.137451171875,208.77362060546875 676.0787353515625,226.1306915283203 668.196044921875,236.17941284179688 663.8965454101562,226.58738708496094 662.4636840820312,212.88455200195312 672.137451171875,208.77362060546875 "/>
   <path stroke="null" id="svg_72" fill="#e6e6e6" d="m675.54116,220.42101s-0.52753,-4.60701 -1.69693,-4.13056s-11.55988,3.67379 -11.55988,5.04408l0,5.9379l-8.59901,42.47893l-2.14975,17.35698l22.5724,-0.45676l3.58292,-60.29264l-2.14975,-5.93793z"/>
   <path stroke="null" id="svg_73" fill="#2f2e41" d="m673.57055,215.625l2.50804,0.91353l4.12036,5.25277s10.03218,-2.28381 11.46535,3.6541s-7.88243,79.93344 -7.88243,79.93344s-15.76485,6.85144 -18.2729,-10.50554s-2.3289,-32.20176 2.68719,-43.16406s5.37438,-36.08424 5.37438,-36.08424z"/>
   <path stroke="null" id="svg_74" fill="#2f2e41" d="m663.17644,219.701l-1.42952,0.94839l-1.25402,7.07982s-10.39047,3.6541 -11.10705,8.67849s0.35829,32.43014 0.35829,32.43014s-10.03218,26.03547 -8.24072,36.99777c0,0 4.2995,4.56762 7.52413,-1.37029s11.10705,-41.56538 11.46535,-43.8492s4.29222,-40.26483 2.68355,-40.91511z"/>
   <polygon stroke="null" id="svg_75" fill="#2f2e41" points="653.3271484375,234.5806884765625 649.490478515625,235.90664672851562 646.8778076171875,245.5428466796875 641.5033569335938,270.2078857421875 631.1129150390625,310.86004638671875 638.2789916992188,314.9709777832031 649.7439575195312,285.28125 653.3271484375,234.5806884765625 "/>
   <path stroke="null" id="svg_76" fill="#2f2e41" d="m672.13739,201.92213c-6.15985,-2.83246 -8.24426,-4.57251 -15.04827,0l-2.50804,-12.78935l20.06435,0l-2.50804,12.78935z"/>
   <circle stroke="null" transform="matrix(0.3894798548314829,0,0,0.4965217468596134,-2536.5546522767395,-2390.7561659588596) " id="svg_77" fill="#2f2e41" r="19.31841" cy="5180.28465" cx="8216.3249"/>
   <path stroke="null" id="svg_78" fill="#2f2e41" d="m654.58107,179.084a7.51786,9.58402 0 0 1 7.16584,-9.56897c-0.11957,-0.00719 -0.23731,-0.02305 -0.35829,-0.02305a7.52413,9.59201 0 1 0 0,19.18402c0.12098,0 0.23872,-0.01586 0.35829,-0.02305a7.51787,9.58403 0 0 1 -7.16584,-9.56895z"/>
   <rect stroke="null" transform="matrix(0.3894798548314829,0,0,0.4965217468596134,-2536.5546522767395,-2390.7561659588596) " id="svg_79" fill="#1b12bd" height="30.53366" width="71.75411" y="5443.47373" x="8178.36588"/>
   <rect stroke="null" transform="matrix(0.3894798548314829,0,0,0.4965217468596134,-2536.5546522767395,-2390.7561659588596) " id="svg_80" opacity="0.1" height="30.53366" width="71.75411" y="5443.47373" x="8178.36588"/>
   <circle stroke="null" transform="matrix(0.3894798548314829,0,0,0.4965217468596134,-2536.5546522767395,-2390.7561659588596) " id="svg_81" opacity="0.2" r="8.39676" cy="5458.74056" cx="8214.24293"/>
   <polygon stroke="null" id="svg_82" opacity="0.2" points="655.294921875,326.070556640625 649.943359375,326.070556640625 649.943359375,313.18402099609375 655.592041015625,313.18402099609375 655.592041015625,313.94219970703125 650.537841796875,313.94219970703125 650.537841796875,325.3123779296875 655.294921875,325.3123779296875 655.294921875,326.070556640625 "/>
   <polygon stroke="null" id="svg_83" opacity="0.2" points="675.5115356445312,326.070556640625 670.1600952148438,326.070556640625 670.1600952148438,325.3123779296875 674.9169311523438,325.3123779296875 674.9169311523438,313.94219970703125 669.863037109375,313.94219970703125 669.863037109375,313.18402099609375 675.5115356445312,313.18402099609375 675.5115356445312,326.070556640625 "/>
   <rect stroke="null" id="svg_84" fill="#1b12bd" transform="matrix(0.37177627284890746,-0.1479957517865134,0.11609031081932643,0.4739526374625071,-2905.4735240627024,-1294.104004646304) " height="30.53366" width="71.75411" y="5825.22015" x="8205.94809"/>
   <circle stroke="null" transform="matrix(0.3894798548314829,0,0,0.4965217468596134,-2536.5546522767395,-2390.7561659588596) " id="svg_85" opacity="0.2" r="8.39676" cy="5471.6195" cx="8211.48316"/>
   <polygon stroke="null" id="svg_86" opacity="0.2" points="656.0641479492188,334.9966735839844 650.9559936523438,337.02972412109375 647.9430541992188,324.7295837402344 653.3350830078125,322.58306884765625 653.51220703125,323.3065490722656 648.687744140625,325.2269592285156 651.346435546875,336.0804138183594 655.8867797851562,334.273193359375 656.0641479492188,334.9966735839844 "/>
   <polygon stroke="null" id="svg_87" opacity="0.2" points="675.3621215820312,327.3143310546875 670.2540893554688,329.3480224609375 670.0767211914062,328.6242370605469 674.6172485351562,326.8169860839844 671.9588012695312,315.9632263183594 667.1342163085938,317.8840026855469 666.9570922851562,317.1599426269531 672.3490600585938,315.0137023925781 675.3621215820312,327.3143310546875 "/>
   <path stroke="null" id="svg_88" fill="#ffb9b9" d="m676.66832,302.8438l-1.64015,5.14836s-4.33183,18.58651 -8.23062,14.46067s4.19216,-16.55159 4.19216,-16.55159l1.45258,-4.75916l4.22602,1.70172z"/>
   <path stroke="null" id="svg_89" fill="#2f2e41" d="m686.64822,226.81569l5.01609,-1.37029a52.53679,66.97563 0 0 1 1.72908,8.22172c0.71658,4.56762 -0.38948,40.65186 -1.10606,44.30596s-13.70939,28.0012 -13.70939,28.0012l-11.69245,-3.23408l16.89642,-32.53208l2.86633,-43.39244z"/>
   <polygon stroke="null" id="svg_90" opacity="0.2" points="683.9531860351562,250.0322265625 680.8373413085938,271.87921142578125 669.153076171875,302.16717529296875 679.6689453125,270.38983154296875 683.9531860351562,250.0322265625 "/>
  </g>
 </g>
</svg>